<svg xmlns="http://www.w3.org/2000/svg" width="320" height="320" viewBox="0 0 320 320">
  <rect width="320" height="320" fill="#16213e"/>
  <g fill="none" stroke="#ffffff" stroke-opacity="0.05" stroke-width="1.2">
    <path d="M0 40 C70 10 120 70 200 40 C250 20 280 20 320 40"/>
    <path d="M0 130 C80 90 140 170 220 130 C270 105 290 108 320 130"/>
    <path d="M0 225 C70 185 140 260 220 220 C270 195 290 205 320 230"/>
    <path d="M35 0 C12 60 56 90 35 160 C10 230 65 255 35 320"/>
    <path d="M150 0 C125 55 170 110 145 170 C120 230 165 260 140 320"/>
    <path d="M275 0 C252 48 297 107 273 165 C250 220 296 260 272 320"/>
  </g>
</svg>
